<svg xmlns="http://www.w3.org/2000/svg" viewBox="0 0 108.84 27.09"><defs><style>.cls-1,.cls-3,.cls-4,.cls-5{fill:none;}.cls-1{stroke:#231f20;stroke-width:0.2px;}.cls-1,.cls-4,.cls-5{stroke-miterlimit:10;}.cls-2{fill:#fff;}.cls-3,.cls-4,.cls-5{stroke:#fff;}.cls-3,.cls-5{stroke-linecap:round;}.cls-3{stroke-linejoin:round;}.cls-6{fill:#e23a52;}</style></defs><g id="Layer_2" data-name="Layer 2"><g id="Logo_Small" data-name="Logo Small"><path class="cls-1" d="M14.15,2A1.46,1.46,0,1,1,15.6,3.41,1.45,1.45,0,0,1,14.15,2Z"/><path class="cls-2" d="M15.6,27l-.83,0A15.43,15.43,0,0,1,.13,11.49c0-.25,0-.49,0-.74a.13.13,0,0,1,.13-.12h0a.13.13,0,0,1,.12.12,15.32,15.32,0,0,0,.76,4.08A15.14,15.14,0,0,0,14.67,25.22q.47,0,.93,0A15.21,15.21,0,0,0,30.06,14.83a14.92,14.92,0,0,0,.75-4.08.14.14,0,0,1,.13-.12.12.12,0,0,1,.12.12c0,.25,0,.49,0,.74A15.43,15.43,0,0,1,16.44,27Z"/><path class="cls-2" d="M30.94,10.76c0,.24,0,.48,0,.73a15,15,0,0,1-.53,4h0a15.34,15.34,0,0,1-14,11.34h0c-.27,0-.55,0-.83,0s-.55,0-.83,0h0a15.36,15.36,0,0,1-14-11.34h0a15.42,15.42,0,0,1-.52-4c0-.25,0-.49,0-.73A15.17,15.17,0,0,0,1,14.87,15.36,15.36,0,0,0,14.66,25.35c.31,0,.63,0,.94,0A15.37,15.37,0,0,0,30.18,14.87a15.56,15.56,0,0,0,.76-4.11m0-.25a.25.25,0,0,0-.25.24A15.09,15.09,0,0,1,15.6,25.13q-.47,0-.93,0A15,15,0,0,1,1.27,14.79a14.71,14.71,0,0,1-.75-4,.25.25,0,0,0-.25-.24h0a.24.24,0,0,0-.25.24c0,.24,0,.49,0,.74a15.74,15.74,0,0,0,.53,4A15.55,15.55,0,0,0,14.76,27.07c.28,0,.56,0,.84,0s.57,0,.85,0A15.56,15.56,0,0,0,30.68,15.54a15.74,15.74,0,0,0,.53-4c0-.25,0-.5,0-.74a.25.25,0,0,0-.25-.24Z"/><path class="cls-2" d="M1,15a.13.13,0,0,1-.11-.09,15.62,15.62,0,0,1-.77-4.14.14.14,0,0,1,.11-.13h0a.13.13,0,0,1,.12.11A9.11,9.11,0,0,0,1.54,14a.15.15,0,0,1,0,.13c-.14.25-.28.5-.4.77A.12.12,0,0,1,1,15Z"/><path class="cls-2" d="M.27,10.76a9.5,9.5,0,0,0,1.16,3.33c-.14.25-.28.51-.4.78a15.17,15.17,0,0,1-.76-4.11m0-.25h0a.24.24,0,0,0-.22.26,15.51,15.51,0,0,0,.77,4.17.26.26,0,0,0,.23.18H1A.25.25,0,0,0,1.26,15a6.84,6.84,0,0,1,.39-.76.28.28,0,0,0,0-.25A9.29,9.29,0,0,1,.51,10.72a.24.24,0,0,0-.24-.21Z"/><path class="cls-1" d="M17.06,2A1.46,1.46,0,1,1,15.6.5,1.46,1.46,0,0,1,17.06,2Z"/><path class="cls-2" d="M30.18,15a.15.15,0,0,1-.12-.07c-.12-.27-.25-.52-.39-.77a.11.11,0,0,1,0-.13,9.38,9.38,0,0,0,1.15-3.28.13.13,0,0,1,.12-.11h0a.12.12,0,0,1,.11.13,15.22,15.22,0,0,1-.76,4.14.13.13,0,0,1-.12.09Z"/><path class="cls-2" d="M30.94,10.76a15.56,15.56,0,0,1-.76,4.11,7.22,7.22,0,0,0-.41-.78,9.32,9.32,0,0,0,1.17-3.33m0-.25a.26.26,0,0,0-.25.21A9.07,9.07,0,0,1,29.56,14a.23.23,0,0,0,0,.25c.14.25.27.5.39.76a.25.25,0,0,0,.23.15h0a.28.28,0,0,0,.23-.18,15.91,15.91,0,0,0,.77-4.17.25.25,0,0,0-.23-.26Zm0,.5Z"/><path class="cls-3" d="M17.06,2A1.46,1.46,0,1,1,15.6.5,1.46,1.46,0,0,1,17.06,2Z"/><line class="cls-4" x1="15.6" y1="25.38" x2="15.6" y2="14.31"/><line class="cls-4" x1="15.6" y1="11.32" x2="15.6" y2="3.41"/><line class="cls-4" x1="14.11" y1="12.82" x2="15.6" y2="11.32"/><line class="cls-4" x1="17.1" y1="12.82" x2="15.6" y2="11.32"/><line class="cls-4" x1="14.11" y1="12.82" x2="15.6" y2="14.31"/><line class="cls-4" x1="17.1" y1="12.82" x2="15.6" y2="14.31"/><line class="cls-5" x1="4.58" y1="12.82" x2="3.09" y2="11.32"/><line class="cls-5" x1="4.58" y1="12.82" x2="3.09" y2="14.31"/><line class="cls-5" x1="3.83" y1="12.82" x2="3.09" y2="12.07"/><line class="cls-5" x1="3.83" y1="12.82" x2="3.09" y2="13.56"/><line class="cls-5" x1="28.07" y1="12.82" x2="26.58" y2="11.32"/><line class="cls-5" x1="28.07" y1="12.82" x2="26.58" y2="14.31"/><line class="cls-5" x1="24.35" y1="11.32" x2="24.35" y2="14.31"/><line class="cls-4" x1="21.37" y1="12.82" x2="24.35" y2="12.82"/><polyline class="cls-4" points="25.07 14.31 25.07 14.3 25.07 11.33 25.07 11.32"/><path class="cls-3" d="M26.56,12.82a1.49,1.49,0,0,1-1.49,1.48v-3A1.49,1.49,0,0,1,26.56,12.82Z"/><line class="cls-4" x1="4.58" y1="12.82" x2="14.11" y2="12.82"/><line class="cls-4" x1="17.1" y1="12.82" x2="21.37" y2="12.82"/><path class="cls-2" d="M7.59,6.15,8,5.71l.48-.48.44-.43.47.47L9,5.71,10.46,7.2,10,7.67,8.5,6.19l-.44.43Zm2,.66v.1L9.55,7h.1l0,.1L9.74,7l.11,0-.07-.07,0-.11-.1.05Zm-1-1.47,0,.18-.17.08.16.09,0,.19.14-.13.18,0L8.8,5.62l.1-.16-.19,0Z"/><path class="cls-2" d="M22.25,4.8l.48.47-.83.83.42.42.82-.83.48.47-2,2-.48-.48L22,6.87l-.42-.42-.78.79-.48-.48ZM22,5.59h-.14l-.08-.12,0,.14-.13,0,.11.09v.13l.11-.08.13,0-.05-.13Zm.38,1.32L22.21,7l-.16-.1,0,.19-.15.12.18,0,.07.17.1-.16h.19l-.12-.15Z"/><path class="cls-2" d="M9,20.83l-.47-.47.83-.83-.42-.42-.83.83-.47-.47,2-2L10,18l-.78.79.41.41.79-.78.47.47ZM9.21,20h.14l.08.12,0-.13.13,0-.11-.09v-.13l-.11.08-.13,0,0,.13Zm-.39-1.32L9,18.65l.16.1,0-.19.15-.12-.19,0L9,18.22l-.09.16-.19,0,.12.14Z"/><path class="cls-2" d="M23.62,19.85l-.48.48-.05-.06a.89.89,0,0,1-.19.31.85.85,0,0,1-.64.25.87.87,0,0,1-.64-.27.85.85,0,0,1-.27-.64.82.82,0,0,1,.26-.63.75.75,0,0,1,.3-.2l-.73-.73.48-.47Zm-1.08-.6-.08-.17.11-.16-.2,0-.12-.15,0,.19-.17.07.16.09v.19l.14-.12Zm-.28,1a.32.32,0,0,0,.24-.09.33.33,0,0,0,.1-.25.35.35,0,0,0-.1-.24.33.33,0,0,0-.25-.1.29.29,0,0,0-.24.09.33.33,0,0,0-.1.25.33.33,0,0,0,.1.24A.33.33,0,0,0,22.26,20.27Zm0,.36v-.11l.08-.07-.1,0,0-.09-.05.09-.11,0,.07.07,0,.1.1,0Z"/><path class="cls-2" d="M45.72,3.5h1.85a4.44,4.44,0,0,1,3.21,1.42l-1,1a3.31,3.31,0,0,0-2.19-1H45.7a2.77,2.77,0,1,0,0,5.53h1.87a3.18,3.18,0,0,0,2.2-1l1,1A4.59,4.59,0,0,1,47.6,12H45.75a4.25,4.25,0,1,1,0-8.49Z"/><path class="cls-2" d="M51.31,12c1.61-2.79,3.21-5.6,4.82-8.39h1.22C59,6.39,60.57,9.2,62.18,12H60.44l-.94-1.64H54L53,12Zm7.34-3.13L56.74,5.54l-1.9,3.32Z"/><path class="cls-2" d="M63.06,12V3.6h6a2.82,2.82,0,0,1,2.84,2.83,2.67,2.67,0,0,1-2,2.58h0l2.9,3H70.64L68,9.25H64.56V12Zm1.5-4.24H69A1.33,1.33,0,1,0,69,5.1H64.56Z"/><path class="cls-2" d="M75.36,7h6.32v1.5H75.36v2h7V12H73.86V3.6h8.51V5.1h-7Z"/><path class="cls-2" d="M85.65,7H92v1.5H85.65v2h7V12H84.15V3.6h8.52V5.1h-7Z"/><path class="cls-2" d="M94.41,12V3.6h6a2.82,2.82,0,0,1,2.84,2.83,2.67,2.67,0,0,1-2,2.58h0l2.9,3H102L99.34,9.25H95.91V12Zm1.5-4.24h4.48a1.33,1.33,0,1,0,0-2.65H95.91Z"/><path class="cls-2" d="M41.1,14.5H43a4.44,4.44,0,0,1,3.21,1.42l-1,1A3.31,3.31,0,0,0,43,16H41.08a2.77,2.77,0,1,0,0,5.53H43a3.18,3.18,0,0,0,2.2-1l1,1A4.59,4.59,0,0,1,43,23H41.13a4.25,4.25,0,1,1,0-8.49Z"/><path class="cls-2" d="M57.27,18.75A4.25,4.25,0,0,1,53,23H51.09a4.25,4.25,0,0,1,0-8.49H53A4.26,4.26,0,0,1,57.27,18.75Zm-1.48,0A2.78,2.78,0,0,0,53,16H51.09a2.77,2.77,0,0,0,0,5.54H53A2.78,2.78,0,0,0,55.79,18.75Z"/><path class="cls-2" d="M64,21.53H63.1l-3-4.08V23h-1.5V14.6h1.29l3.6,5,3.59-5H68.4V23H66.91V17.45Z"/><path class="cls-2" d="M76.25,14.6a2.83,2.83,0,1,1,0,5.65H71.78V23h-1.5V14.6Zm-4.47,4.15h4.49a1.33,1.33,0,1,0,0-2.65H71.78Z"/><path class="cls-2" d="M78,23l4.83-8.39h1.22c1.59,2.79,3.21,5.6,4.82,8.39H87.16l-.93-1.64H80.7L79.76,23Zm7.34-3.13-1.9-3.32-1.91,3.32Z"/><path class="cls-2" d="M96.89,17.07a1,1,0,0,0-1-1H91.78a1,1,0,0,0-1,1,1,1,0,0,0,1,1h4.14a2.48,2.48,0,0,1,0,4.95H91.78a2.48,2.48,0,0,1-2.48-2.47h1.5a1,1,0,0,0,1,1H95.9a1,1,0,0,0,0-2H91.77a2.44,2.44,0,0,1-1.71-.7L90,18.78a2.45,2.45,0,0,1-.7-1.71,2.48,2.48,0,0,1,2.47-2.47h4.14a2.47,2.47,0,0,1,2.47,2.47Z"/><path class="cls-2" d="M107.36,17.07a1,1,0,0,0-1-1h-4.12a1,1,0,0,0-1,1,1,1,0,0,0,1,1h4.13a2.48,2.48,0,0,1,0,4.95h-4.12a2.48,2.48,0,0,1-2.48-2.47h1.49a1,1,0,0,0,1,1h4.12a1,1,0,1,0,0-2h-4.13a2.46,2.46,0,0,1-1.72-.7l-.06-.06a2.45,2.45,0,0,1-.69-1.71,2.48,2.48,0,0,1,2.47-2.47h4.13a2.47,2.47,0,0,1,2.47,2.47Z"/><path class="cls-2" d="M73.12,15.65a4.73,4.73,0,0,1-3.69-1.86c-.35-.38-.66-.71-.91-.71s-.73.08-2.09,1.08a2.26,2.26,0,0,1-1.28.56,1.3,1.3,0,0,1-1-.51,6.3,6.3,0,0,1-.56-1c-.13-.23-.31-.58-.37-.66a4.06,4.06,0,0,0-1.45,2,.94.94,0,0,1-.87.69.87.87,0,0,1-.79-.54l0-.11.14-3.18a10.78,10.78,0,0,1,0-1.16.82.82,0,0,1,1.56-.17l0,.09,0,1.27a2.71,2.71,0,0,1,.45-.3,2.21,2.21,0,0,1,1-.26c1.07,0,1.54,1,1.85,1.65l.15.3.33-.25a5.47,5.47,0,0,1,2.91-1.24,1.38,1.38,0,0,1,.48.06,3.46,3.46,0,0,1,1.7,1.22,3,3,0,0,0,2.36,1.27,4.09,4.09,0,0,0,1-.12,34.87,34.87,0,0,0,4.57-1.63,1.18,1.18,0,0,1,.43-.09.83.83,0,0,1,.85.83.85.85,0,0,1-.3.64,43.76,43.76,0,0,1-5,1.91A7,7,0,0,1,73.12,15.65Z"/><path class="cls-6" d="M61.06,10.1a.3.3,0,0,1,.29.2l.06,2.37a3.58,3.58,0,0,1,1.15-1.06,1.65,1.65,0,0,1,.76-.21c1.06,0,1.33,1.54,1.75,2,.05,0,.08.07.12.07s.27-.12.75-.48a5.08,5.08,0,0,1,2.61-1.14,1,1,0,0,1,.32,0c1.5.35,1.85,2.52,4.22,2.52a4.9,4.9,0,0,0,1.13-.13,35.66,35.66,0,0,0,4.63-1.65.5.5,0,0,1,.24-.06.33.33,0,0,1,.35.33.3.3,0,0,1-.12.25A51.09,51.09,0,0,1,74.52,15a6.46,6.46,0,0,1-1.4.18c-2.84,0-3.42-2.57-4.59-2.57a5,5,0,0,0-2.39,1.17,1.86,1.86,0,0,1-1,.47.86.86,0,0,1-.62-.33c-.21-.24-.75-1.4-.93-1.61a.44.44,0,0,0-.33-.15c-.62,0-1.55,1.19-2,2.25-.1.27-.25.38-.4.38a.38.38,0,0,1-.33-.24l.13-3.06c0-.53,0-1,0-1.07a.34.34,0,0,1,.33-.29m0-1a1.34,1.34,0,0,0-1.31,1.1v0h0a8.77,8.77,0,0,0,0,1.24l-.13,3v.24l.09.21a1.39,1.39,0,0,0,1.25.84,1.45,1.45,0,0,0,1.34-1,4.75,4.75,0,0,1,.84-1.36l.07.11a5.68,5.68,0,0,0,.63,1.06,1.79,1.79,0,0,0,1.37.67,2.73,2.73,0,0,0,1.58-.66,4.5,4.5,0,0,1,1.76-1,3.48,3.48,0,0,1,.58.55,5.22,5.22,0,0,0,4.05,2,7.2,7.2,0,0,0,1.62-.21,39.7,39.7,0,0,0,5.24-2,1.33,1.33,0,0,0-.89-2.34,1.51,1.51,0,0,0-.64.14A34.55,34.55,0,0,1,74,13.3a3.41,3.41,0,0,1-.9.11,2.47,2.47,0,0,1-2-1.11,4,4,0,0,0-2-1.37,1.82,1.82,0,0,0-.58-.07,5.8,5.8,0,0,0-3.06,1.23,2.52,2.52,0,0,0-2.17-1.69,2.36,2.36,0,0,0-1,.2v-.53l-.08-.18a1.31,1.31,0,0,0-1.2-.79Z"/><path class="cls-2" d="M79,23.07a1.69,1.69,0,0,1-.56-.09,1.66,1.66,0,0,1-1.2-1.72,2.53,2.53,0,0,1,.08-.63c.44-1.88,2.62-3.81,4.36-4.89l.28-.17c0-.21.06-.6.08-1a3.8,3.8,0,0,1-1,.84,1.9,1.9,0,0,1-1,.31A1.47,1.47,0,0,1,79,15.25a4.16,4.16,0,0,1-.61-2.38,2.62,2.62,0,0,1,.4-1.65.87.87,0,0,1,.61-.26.79.79,0,0,1,.8.81,1,1,0,0,1-.08.4,2.64,2.64,0,0,0,0,.53,4.45,4.45,0,0,0,.14,1.23h0a6.85,6.85,0,0,0,1.68-2.22c.29-.57.39-.63.47-.68a.8.8,0,0,1,.47-.15,1,1,0,0,1,.87.57c0,.09.1.23.1,1.45,0,.6,0,1.29,0,1.7l.08,0c1.11-.58,4.93-2.49,6.65-2.49h.13a.82.82,0,0,1,.81.83.87.87,0,0,1-.89.87,14.14,14.14,0,0,0-4.09,1.45l-.22.1c-.66.3-2.28,1.1-2.72,1.34,0,.05,0,.12,0,.2C82.91,19.26,81.23,23.07,79,23.07Zm0-1.75a.58.58,0,0,0,.19,0c.59-.22,1.49-1.45,2.14-3.2a6.7,6.7,0,0,0-2.35,3c0,.05,0,.15,0,.23v0Z"/><path class="cls-6" d="M82.8,11.38a.46.46,0,0,1,.41.26,7.44,7.44,0,0,1,.06,1.26c0,.84,0,1.8,0,2s0,.38,0,.47v0A8.24,8.24,0,0,0,84,15c.72-.37,4.79-2.44,6.45-2.44h.08a.33.33,0,0,1,.35.33.37.37,0,0,1-.39.37c-1.26,0-3.39,1.07-4.52,1.59-.72.33-2.79,1.36-2.9,1.44a1.24,1.24,0,0,0-.15.46c-.49,2.23-2.07,5.81-4,5.81a1.39,1.39,0,0,1-.4-.06,1.19,1.19,0,0,1-.86-1.25,2.14,2.14,0,0,1,.06-.5c.41-1.75,2.54-3.6,4.15-4.59.34-.21.46-.3.48-.36a19.79,19.79,0,0,0,.15-2.34,1.64,1.64,0,0,0,0-.42h0A5.68,5.68,0,0,1,80.79,15a1.44,1.44,0,0,1-.76.24,1,1,0,0,1-.71-.3,3.58,3.58,0,0,1-.48-2,2.23,2.23,0,0,1,.26-1.29.33.33,0,0,1,.25-.12.3.3,0,0,1,.3.31.32.32,0,0,1,0,.17,2.07,2.07,0,0,0-.09.76,3.13,3.13,0,0,0,.35,1.73.21.21,0,0,0,.15.07.92.92,0,0,0,.36-.12,6.8,6.8,0,0,0,1.92-2.46,2,2,0,0,1,.3-.48.35.35,0,0,1,.19-.06m-.6,5.48c-1.29.72-3.44,2.64-3.74,4.1,0,.1,0,.22,0,.33a.78.78,0,0,0,.06.33.52.52,0,0,0,.47.21,1,1,0,0,0,.37-.08c1-.36,2.17-2.31,2.78-4.57l.09-.32m.6-6.48a1.29,1.29,0,0,0-.79.26,2,2,0,0,0-.59.81,7.54,7.54,0,0,1-.89,1.41V12.7a3.38,3.38,0,0,1,0-.39,1.38,1.38,0,0,0,.1-.54,1.31,1.31,0,0,0-1.3-1.31,1.33,1.33,0,0,0-1,.41c-.14.13-.55.55-.55,2a4.51,4.51,0,0,0,.73,2.7,2,2,0,0,0,1.46.64h.09c-1.24.95-2.91,2.53-3.32,4.33a2.53,2.53,0,0,0-.09.72,2.18,2.18,0,0,0,1.58,2.21,2.48,2.48,0,0,0,.68.1c2.86,0,4.54-4.73,5-6.58.59-.3,1.89-.94,2.5-1.22l.22-.1a14.25,14.25,0,0,1,3.9-1.4h0a1.36,1.36,0,0,0,1.37-1.37,1.32,1.32,0,0,0-1.28-1.33h-.15c-1.57,0-4.63,1.41-6.22,2.21,0-.29,0-.59,0-.88a4.08,4.08,0,0,0-.14-1.65,1.44,1.44,0,0,0-1.33-.87Z"/></g></g></svg>